<?xml version="1.0" encoding="UTF-8"?>
<svg version="1.1" xmlns="http://www.w3.org/2000/svg" width="106" height="150">
<path d="M0 0 C34.98 0 69.96 0 106 0 C106 49.5 106 99 106 150 C71.02 150 36.04 150 0 150 C0 100.5 0 51 0 0 Z " fill="#FDFEFE" transform="translate(0,0)"/>
<path d="M0 0 C1.24132187 0.00222061 2.48264374 0.00444122 3.76158142 0.00672913 C4.44447739 0.0065831 5.12737335 0.00643707 5.83096313 0.00628662 C8.09815092 0.00698575 10.36525752 0.01477811 12.63243103 0.02259827 C14.20041865 0.02446245 15.76840685 0.02588635 17.33639526 0.02688599 C21.47103981 0.03071117 25.60564944 0.04054146 29.74028015 0.05158997 C33.95627876 0.06180407 38.172283 0.0663836 42.38829041 0.07142639 C50.66630125 0.08216373 58.94428368 0.09924015 67.22227478 0.12025452 C67.06737236 1.53820922 66.91170413 2.95608028 66.75572205 4.37391663 C66.66911819 5.16350266 66.58251434 5.95308868 66.49328613 6.76660156 C65.86369907 12.23437785 65.01535402 17.67444376 64.22227478 23.12025452 C54.32227478 23.61525452 54.32227478 23.61525452 44.22227478 24.12025452 C42.11038764 30.67438703 40.14757519 37.11890998 38.78477478 43.87025452 C37.70234545 49.17651134 36.34919901 54.3171396 34.78477478 59.49525452 C33.11309017 65.03029089 31.54438434 70.56857931 30.15977478 76.18275452 C29.99582214 76.84742737 29.83186951 77.51210022 29.66294861 78.19691467 C28.88766334 81.36044828 28.1249738 84.52678601 27.36680603 87.69447327 C25.15722032 96.77403727 22.6629423 105.75966558 20.09727478 114.74525452 C19.74826111 115.96760803 19.39924744 117.18996155 19.03965759 118.44935608 C17.52559768 123.71571491 15.95600497 128.91906394 14.22227478 134.12025452 C4.98227478 134.12025452 -4.25772522 134.12025452 -13.77772522 134.12025452 C-12.59495605 128.79779326 -11.44240567 123.74304198 -9.90272522 118.55775452 C-8.41372897 113.43450447 -7.04647908 108.30089528 -5.77772522 103.12025452 C-4.25932658 96.92717697 -2.55909719 90.80622067 -0.77772522 84.68275452 C0.29952047 80.84506675 1.27310083 76.99110451 2.22227478 73.12025452 C3.74028536 66.92961762 5.43783313 60.81064424 7.22227478 54.69056702 C8.30909417 50.81028218 9.27309754 46.91084283 10.22227478 42.99525452 C11.86736975 36.23172293 13.92277372 29.69025756 16.22227478 23.12025452 C7.97227478 23.12025452 -0.27772522 23.12025452 -8.77772522 23.12025452 C-7.78772522 19.16025452 -6.79772522 15.20025452 -5.77772522 11.12025452 C-4.97163476 7.05586842 -4.97163476 7.05586842 -4.20741272 2.98353577 C-3.51647807 -0.01260812 -3.18135552 0.13772866 0 0 Z " fill="#07696B" transform="translate(29.777725219726563,8.879745483398438)"/>
<path d="M0 0 C0.33 1.32 0.66 2.64 1 4 C9.91 3.67 18.82 3.34 28 3 C27.67 3.99 27.34 4.98 27 6 C17.76 6 8.52 6 -1 6 C-0.67 4.02 -0.34 2.04 0 0 Z " fill="#5A9092" transform="translate(17,137)"/>
</svg>
